<?xml version="1.0" encoding="utf-8" standalone="no"?>
<!DOCTYPE svg PUBLIC "-//W3C//DTD SVG 1.1//EN"
  "http://www.w3.org/Graphics/SVG/1.1/DTD/svg11.dtd">
<svg xmlns:xlink="http://www.w3.org/1999/xlink" width="453.6pt" height="235.872pt" viewBox="0 0 453.6 235.872" xmlns="http://www.w3.org/2000/svg" version="1.1">
 <metadata>
  <rdf:RDF xmlns:dc="http://purl.org/dc/elements/1.1/" xmlns:cc="http://creativecommons.org/ns#" xmlns:rdf="http://www.w3.org/1999/02/22-rdf-syntax-ns#">
   <cc:Work>
    <dc:type rdf:resource="http://purl.org/dc/dcmitype/StillImage"/>
    <dc:date>2026-07-31T11:50:35.267899</dc:date>
    <dc:format>image/svg+xml</dc:format>
    <dc:creator>
     <cc:Agent>
      <dc:title>Matplotlib v3.11.1, https://matplotlib.org/</dc:title>
     </cc:Agent>
    </dc:creator>
   </cc:Work>
  </rdf:RDF>
 </metadata>
 <defs>
  <style type="text/css">*{stroke-linejoin: round; stroke-linecap: butt}</style>
 </defs>
 <g id="figure_1">
  <g id="patch_1">
   <path d="M 0 235.872 
L 453.6 235.872 
L 453.6 0 
L 0 0 
z
" style="fill: #ffffff"/>
  </g>
  <g id="axes_1">
   <g id="patch_2">
    <path d="M 37.746803 206.789885 
L 450.59976 206.789885 
L 450.59976 13.68399 
L 37.746803 13.68399 
z
" style="fill: #ffffff"/>
   </g>
   <g id="FillBetweenPolyCollection_1">
    <defs>
     <path id="m5da85788d3" d="M 56.512846 -192.637734 
L 56.512846 -41.048144 
L 90.632925 -43.399553 
L 124.753004 -43.952766 
L 158.873083 -44.079375 
L 192.993163 -43.260244 
L 227.113242 -39.883837 
L 261.233321 -37.859656 
L 295.3534 -37.859656 
L 329.473479 -37.859656 
L 363.593558 -37.859656 
L 397.713637 -37.859656 
L 431.833716 -37.859656 
L 431.833716 -178.52951 
L 431.833716 -178.52951 
L 397.713637 -177.541199 
L 363.593558 -177.61381 
L 329.473479 -177.177418 
L 295.3534 -178.235195 
L 261.233321 -182.457569 
L 227.113242 -189.737679 
L 192.993163 -198.147626 
L 158.873083 -200.187915 
L 124.753004 -199.872557 
L 90.632925 -198.494616 
L 56.512846 -192.637734 
z
" style="stroke: #0072b2; stroke-opacity: 0.1; stroke-width: 0.6"/>
    </defs>
    <g clip-path="url(#p76e45a5a56)">
     <use xlink:href="#m5da85788d3" x="0" y="235.872" style="fill: #0072b2; fill-opacity: 0.1; stroke: #0072b2; stroke-opacity: 0.1; stroke-width: 0.6"/>
    </g>
   </g>
   <g id="FillBetweenPolyCollection_2">
    <defs>
     <path id="m757c890688" d="M 56.512846 -205.710227 
L 56.512846 -46.296461 
L 90.632925 -47.241957 
L 124.753004 -48.396456 
L 158.873083 -49.387938 
L 192.993163 -49.119721 
L 227.113242 -49.345501 
L 261.233321 -49.00144 
L 295.3534 -48.131432 
L 329.473479 -46.254208 
L 363.593558 -45.066509 
L 397.713637 -46.434545 
L 431.833716 -47.169666 
L 431.833716 -207.885203 
L 431.833716 -207.885203 
L 397.713637 -206.054165 
L 363.593558 -202.646666 
L 329.473479 -205.604984 
L 295.3534 -210.280767 
L 261.233321 -212.44778 
L 227.113242 -213.304768 
L 192.993163 -212.742394 
L 158.873083 -213.410469 
L 124.753004 -210.940888 
L 90.632925 -208.065265 
L 56.512846 -205.710227 
z
" style="stroke: #e69f00; stroke-opacity: 0.1; stroke-width: 0.6"/>
    </defs>
    <g clip-path="url(#p76e45a5a56)">
     <use xlink:href="#m757c890688" x="0" y="235.872" style="fill: #e69f00; fill-opacity: 0.1; stroke: #e69f00; stroke-opacity: 0.1; stroke-width: 0.6"/>
    </g>
   </g>
   <g id="FillBetweenPolyCollection_3">
    <defs>
     <path id="m38d6cc7d05" d="M 56.512846 -177.705238 
L 56.512846 -37.859656 
L 90.632925 -37.859656 
L 124.753004 -37.859656 
L 158.873083 -37.859656 
L 192.993163 -40.98456 
L 227.113242 -42.827492 
L 261.233321 -45.182511 
L 295.3534 -42.515996 
L 329.473479 -37.859656 
L 363.593558 -37.859656 
L 397.713637 -37.859656 
L 431.833716 -37.859656 
L 431.833716 -173.225455 
L 431.833716 -173.225455 
L 397.713637 -172.692017 
L 363.593558 -178.613342 
L 329.473479 -184.277011 
L 295.3534 -196.293855 
L 261.233321 -202.935603 
L 227.113242 -197.069727 
L 192.993163 -192.479358 
L 158.873083 -181.380698 
L 124.753004 -179.785921 
L 90.632925 -179.663901 
L 56.512846 -177.705238 
z
" style="stroke: #d55e00; stroke-opacity: 0.1; stroke-width: 0.6"/>
    </defs>
    <g clip-path="url(#p76e45a5a56)">
     <use xlink:href="#m38d6cc7d05" x="0" y="235.872" style="fill: #d55e00; fill-opacity: 0.1; stroke: #d55e00; stroke-opacity: 0.1; stroke-width: 0.6"/>
    </g>
   </g>
   <g id="matplotlib.axis_1">
    <g id="xtick_1">
     <g id="line2d_1">
      <defs>
       <path id="m0f7701b5f0" d="M 0 0 
L 0 3 
" style="stroke: #000000; stroke-width: 0.6"/>
      </defs>
      <g>
       <use xlink:href="#m0f7701b5f0" x="56.512846" y="206.789885" style="stroke: #000000; stroke-width: 0.6"/>
      </g>
     </g>
     <g id="text_1">
      <text style="font-size: 7px; font-family: 'DejaVu Sans', 'Microsoft YaHei'; text-anchor: middle" x="56.512846" y="218.608244" transform="rotate(-0 56.512846 218.608244)">07</text>
     </g>
    </g>
    <g id="xtick_2">
     <g id="line2d_2">
      <g>
       <use xlink:href="#m0f7701b5f0" x="90.632925" y="206.789885" style="stroke: #000000; stroke-width: 0.6"/>
      </g>
     </g>
     <g id="text_2">
      <text style="font-size: 7px; font-family: 'DejaVu Sans', 'Microsoft YaHei'; text-anchor: middle" x="90.632925" y="218.608244" transform="rotate(-0 90.632925 218.608244)">09</text>
     </g>
    </g>
    <g id="xtick_3">
     <g id="line2d_3">
      <g>
       <use xlink:href="#m0f7701b5f0" x="124.753004" y="206.789885" style="stroke: #000000; stroke-width: 0.6"/>
      </g>
     </g>
     <g id="text_3">
      <text style="font-size: 7px; font-family: 'DejaVu Sans', 'Microsoft YaHei'; text-anchor: middle" x="124.753004" y="218.608244" transform="rotate(-0 124.753004 218.608244)">11</text>
     </g>
    </g>
    <g id="xtick_4">
     <g id="line2d_4">
      <g>
       <use xlink:href="#m0f7701b5f0" x="158.873083" y="206.789885" style="stroke: #000000; stroke-width: 0.6"/>
      </g>
     </g>
     <g id="text_4">
      <text style="font-size: 7px; font-family: 'DejaVu Sans', 'Microsoft YaHei'; text-anchor: middle" x="158.873083" y="218.608244" transform="rotate(-0 158.873083 218.608244)">13</text>
     </g>
    </g>
    <g id="xtick_5">
     <g id="line2d_5">
      <g>
       <use xlink:href="#m0f7701b5f0" x="192.993163" y="206.789885" style="stroke: #000000; stroke-width: 0.6"/>
      </g>
     </g>
     <g id="text_5">
      <text style="font-size: 7px; font-family: 'DejaVu Sans', 'Microsoft YaHei'; text-anchor: middle" x="192.993163" y="218.608244" transform="rotate(-0 192.993163 218.608244)">15</text>
     </g>
    </g>
    <g id="xtick_6">
     <g id="line2d_6">
      <g>
       <use xlink:href="#m0f7701b5f0" x="227.113242" y="206.789885" style="stroke: #000000; stroke-width: 0.6"/>
      </g>
     </g>
     <g id="text_6">
      <text style="font-size: 7px; font-family: 'DejaVu Sans', 'Microsoft YaHei'; text-anchor: middle" x="227.113242" y="218.608244" transform="rotate(-0 227.113242 218.608244)">17</text>
     </g>
    </g>
    <g id="xtick_7">
     <g id="line2d_7">
      <g>
       <use xlink:href="#m0f7701b5f0" x="261.233321" y="206.789885" style="stroke: #000000; stroke-width: 0.6"/>
      </g>
     </g>
     <g id="text_7">
      <text style="font-size: 7px; font-family: 'DejaVu Sans', 'Microsoft YaHei'; text-anchor: middle" x="261.233321" y="218.608244" transform="rotate(-0 261.233321 218.608244)">19</text>
     </g>
    </g>
    <g id="xtick_8">
     <g id="line2d_8">
      <g>
       <use xlink:href="#m0f7701b5f0" x="295.3534" y="206.789885" style="stroke: #000000; stroke-width: 0.6"/>
      </g>
     </g>
     <g id="text_8">
      <text style="font-size: 7px; font-family: 'DejaVu Sans', 'Microsoft YaHei'; text-anchor: middle" x="295.3534" y="218.608244" transform="rotate(-0 295.3534 218.608244)">21</text>
     </g>
    </g>
    <g id="xtick_9">
     <g id="line2d_9">
      <g>
       <use xlink:href="#m0f7701b5f0" x="329.473479" y="206.789885" style="stroke: #000000; stroke-width: 0.6"/>
      </g>
     </g>
     <g id="text_9">
      <text style="font-size: 7px; font-family: 'DejaVu Sans', 'Microsoft YaHei'; text-anchor: middle" x="329.473479" y="218.608244" transform="rotate(-0 329.473479 218.608244)">23</text>
     </g>
    </g>
    <g id="xtick_10">
     <g id="line2d_10">
      <g>
       <use xlink:href="#m0f7701b5f0" x="363.593558" y="206.789885" style="stroke: #000000; stroke-width: 0.6"/>
      </g>
     </g>
     <g id="text_10">
      <text style="font-size: 7px; font-family: 'DejaVu Sans', 'Microsoft YaHei'; text-anchor: middle" x="363.593558" y="218.608244" transform="rotate(-0 363.593558 218.608244)">01</text>
     </g>
    </g>
    <g id="xtick_11">
     <g id="line2d_11">
      <g>
       <use xlink:href="#m0f7701b5f0" x="397.713637" y="206.789885" style="stroke: #000000; stroke-width: 0.6"/>
      </g>
     </g>
     <g id="text_11">
      <text style="font-size: 7px; font-family: 'DejaVu Sans', 'Microsoft YaHei'; text-anchor: middle" x="397.713637" y="218.608244" transform="rotate(-0 397.713637 218.608244)">03</text>
     </g>
    </g>
    <g id="xtick_12">
     <g id="line2d_12">
      <g>
       <use xlink:href="#m0f7701b5f0" x="431.833716" y="206.789885" style="stroke: #000000; stroke-width: 0.6"/>
      </g>
     </g>
     <g id="text_12">
      <text style="font-size: 7px; font-family: 'DejaVu Sans', 'Microsoft YaHei'; text-anchor: middle" x="431.833716" y="218.608244" transform="rotate(-0 431.833716 218.608244)">05</text>
     </g>
    </g>
    <g id="text_13">
     <text style="font-size: 8px; font-family: 'DejaVu Sans', 'Microsoft YaHei'; text-anchor: middle" x="244.173281" y="230.949885" transform="rotate(-0 244.173281 230.949885)">营运时次</text>
    </g>
   </g>
   <g id="matplotlib.axis_2">
    <g id="ytick_1">
     <g id="line2d_13">
      <defs>
       <path id="m02d636d96e" d="M 0 0 
L -3 0 
" style="stroke: #000000; stroke-width: 0.6"/>
      </defs>
      <g>
       <use xlink:href="#m02d636d96e" x="37.746803" y="198.012344" style="stroke: #000000; stroke-width: 0.6"/>
      </g>
     </g>
     <g id="text_14">
      <text style="font-size: 7px; font-family: 'DejaVu Sans', 'Microsoft YaHei'; text-anchor: end" x="31.246803" y="200.671524" transform="rotate(-0 31.246803 200.671524)">0.00</text>
     </g>
    </g>
    <g id="ytick_2">
     <g id="line2d_14">
      <g>
       <use xlink:href="#m02d636d96e" x="37.746803" y="173.388573" style="stroke: #000000; stroke-width: 0.6"/>
      </g>
     </g>
     <g id="text_15">
      <text style="font-size: 7px; font-family: 'DejaVu Sans', 'Microsoft YaHei'; text-anchor: end" x="31.246803" y="176.047752" transform="rotate(-0 31.246803 176.047752)">0.25</text>
     </g>
    </g>
    <g id="ytick_3">
     <g id="line2d_15">
      <g>
       <use xlink:href="#m02d636d96e" x="37.746803" y="148.764801" style="stroke: #000000; stroke-width: 0.6"/>
      </g>
     </g>
     <g id="text_16">
      <text style="font-size: 7px; font-family: 'DejaVu Sans', 'Microsoft YaHei'; text-anchor: end" x="31.246803" y="151.423981" transform="rotate(-0 31.246803 151.423981)">0.50</text>
     </g>
    </g>
    <g id="ytick_4">
     <g id="line2d_16">
      <g>
       <use xlink:href="#m02d636d96e" x="37.746803" y="124.141029" style="stroke: #000000; stroke-width: 0.6"/>
      </g>
     </g>
     <g id="text_17">
      <text style="font-size: 7px; font-family: 'DejaVu Sans', 'Microsoft YaHei'; text-anchor: end" x="31.246803" y="126.800209" transform="rotate(-0 31.246803 126.800209)">0.75</text>
     </g>
    </g>
    <g id="ytick_5">
     <g id="line2d_17">
      <g>
       <use xlink:href="#m02d636d96e" x="37.746803" y="99.517257" style="stroke: #000000; stroke-width: 0.6"/>
      </g>
     </g>
     <g id="text_18">
      <text style="font-size: 7px; font-family: 'DejaVu Sans', 'Microsoft YaHei'; text-anchor: end" x="31.246803" y="102.176437" transform="rotate(-0 31.246803 102.176437)">1.00</text>
     </g>
    </g>
    <g id="ytick_6">
     <g id="line2d_18">
      <g>
       <use xlink:href="#m02d636d96e" x="37.746803" y="74.893486" style="stroke: #000000; stroke-width: 0.6"/>
      </g>
     </g>
     <g id="text_19">
      <text style="font-size: 7px; font-family: 'DejaVu Sans', 'Microsoft YaHei'; text-anchor: end" x="31.246803" y="77.552665" transform="rotate(-0 31.246803 77.552665)">1.25</text>
     </g>
    </g>
    <g id="ytick_7">
     <g id="line2d_19">
      <g>
       <use xlink:href="#m02d636d96e" x="37.746803" y="50.269714" style="stroke: #000000; stroke-width: 0.6"/>
      </g>
     </g>
     <g id="text_20">
      <text style="font-size: 7px; font-family: 'DejaVu Sans', 'Microsoft YaHei'; text-anchor: end" x="31.246803" y="52.928894" transform="rotate(-0 31.246803 52.928894)">1.50</text>
     </g>
    </g>
    <g id="ytick_8">
     <g id="line2d_20">
      <g>
       <use xlink:href="#m02d636d96e" x="37.746803" y="25.645942" style="stroke: #000000; stroke-width: 0.6"/>
      </g>
     </g>
     <g id="text_21">
      <text style="font-size: 7px; font-family: 'DejaVu Sans', 'Microsoft YaHei'; text-anchor: end" x="31.246803" y="28.305122" transform="rotate(-0 31.246803 28.305122)">1.75</text>
     </g>
    </g>
    <g id="text_22">
     <text style="font-size: 8px; font-family: 'DejaVu Sans', 'Microsoft YaHei'; text-anchor: middle" x="9.73899" y="110.236938" transform="rotate(-90 9.73899 110.236938)">出厂水浊度 (NTU)</text>
    </g>
   </g>
   <g id="line2d_21">
    <path d="M 56.512846 173.176473 
L 90.632925 170.324474 
L 124.753004 169.653487 
L 158.873083 169.499924 
L 192.993163 170.49344 
L 227.113242 174.58865 
L 261.233321 178.133688 
L 295.3534 180.189766 
L 329.473479 180.704849 
L 363.593558 180.492348 
L 397.713637 180.527706 
L 431.833716 180.04645 
" clip-path="url(#p76e45a5a56)" style="fill: none; stroke: #0072b2; stroke-width: 1.1; stroke-linecap: square"/>
   </g>
   <g id="line2d_22">
    <path d="M 56.512846 166.810843 
L 90.632925 165.664061 
L 124.753004 164.263782 
L 158.873083 163.061223 
L 192.993163 163.386541 
L 227.113242 163.112694 
L 261.233321 163.530003 
L 295.3534 164.585227 
L 329.473479 166.862092 
L 363.593558 168.302639 
L 397.713637 166.643363 
L 431.833716 165.751743 
" clip-path="url(#p76e45a5a56)" style="fill: none; stroke-dasharray: 4.07,1.76; stroke-dashoffset: 0; stroke: #e69f00; stroke-width: 1.1"/>
   </g>
   <g id="line2d_23">
    <path d="M 56.512846 180.447828 
L 90.632925 179.49406 
L 124.753004 179.434643 
L 158.873083 178.658068 
L 192.993163 173.253594 
L 227.113242 171.018321 
L 261.233321 168.161942 
L 295.3534 171.396131 
L 329.473479 177.247713 
L 363.593558 180.005628 
L 397.713637 182.889007 
L 431.833716 182.629251 
" clip-path="url(#p76e45a5a56)" style="fill: none; stroke-dasharray: 1.1,1.815; stroke-dashoffset: 0; stroke: #d55e00; stroke-width: 1.1"/>
   </g>
   <g id="line2d_24">
    <path d="M 37.746803 99.517257 
L 450.59976 99.517257 
" clip-path="url(#p76e45a5a56)" style="fill: none; stroke-dasharray: 2.96,1.28; stroke-dashoffset: 0; stroke: #6b7280; stroke-width: 0.8"/>
   </g>
   <g id="patch_3">
    <path d="M 37.746803 206.789885 
L 37.746803 13.68399 
" style="fill: none; stroke: #000000; stroke-width: 0.7; stroke-linejoin: miter; stroke-linecap: square"/>
   </g>
   <g id="patch_4">
    <path d="M 37.746803 206.789885 
L 450.59976 206.789885 
" style="fill: none; stroke: #000000; stroke-width: 0.7; stroke-linejoin: miter; stroke-linecap: square"/>
   </g>
   <g id="text_23">
    <text style="font-size: 8px; font-family: 'DejaVu Sans', 'Microsoft YaHei'; text-anchor: start" x="37.746803" y="9.68399" transform="rotate(-0 37.746803 9.68399)">指定营运日条件预测</text>
   </g>
   <g id="legend_1">
    <g id="line2d_25">
     <path d="M 387.518822 22.152896 
L 393.118822 22.152896 
L 398.718822 22.152896 
" style="fill: none; stroke: #0072b2; stroke-width: 1.1; stroke-linecap: square"/>
    </g>
    <g id="text_24">
     <text style="font-size: 7px; font-family: 'DejaVu Sans', 'Microsoft YaHei'; text-anchor: start" x="404.318822" y="24.602896" transform="rotate(-0 404.318822 24.602896)">2026-02-01</text>
    </g>
    <g id="line2d_26">
     <path d="M 387.518822 32.653443 
L 393.118822 32.653443 
L 398.718822 32.653443 
" style="fill: none; stroke-dasharray: 4.07,1.76; stroke-dashoffset: 0; stroke: #e69f00; stroke-width: 1.1"/>
    </g>
    <g id="text_25">
     <text style="font-size: 7px; font-family: 'DejaVu Sans', 'Microsoft YaHei'; text-anchor: start" x="404.318822" y="35.103443" transform="rotate(-0 404.318822 35.103443)">2026-02-10</text>
    </g>
    <g id="line2d_27">
     <path d="M 387.518822 43.15399 
L 393.118822 43.15399 
L 398.718822 43.15399 
" style="fill: none; stroke-dasharray: 1.1,1.815; stroke-dashoffset: 0; stroke: #d55e00; stroke-width: 1.1"/>
    </g>
    <g id="text_26">
     <text style="font-size: 7px; font-family: 'DejaVu Sans', 'Microsoft YaHei'; text-anchor: start" x="404.318822" y="45.60399" transform="rotate(-0 404.318822 45.60399)">2026-02-20</text>
    </g>
   </g>
  </g>
 </g>
 <defs>
  <clipPath id="p76e45a5a56">
   <rect x="37.746803" y="13.68399" width="412.852957" height="193.105895"/>
  </clipPath>
 </defs>
</svg>
